<?xml version="1.0" encoding="UTF-8"?>
<svg width="24px" height="24px" viewBox="0 0 24 24" version="1.1" xmlns="http://www.w3.org/2000/svg" xmlns:xlink="http://www.w3.org/1999/xlink">
    <!-- Generator: Sketch 59.1 (86144) - https://sketch.com -->
    <title>Combined Shape</title>
    <desc>Created with Sketch.</desc>
    <g id="TapGoods-2.0" stroke="none" stroke-width="1" fill="none" fill-rule="evenodd">
        <g id="600_AboutUs" transform="translate(-386.000000, -1254.000000)" fill="#278ADA">
            <path d="M387.62149,1270.68571 C388.598291,1269.77143 390.063492,1269.77143 391.040293,1270.68571 C394.947497,1274.34276 401.052503,1274.34276 404.959707,1270.68571 C405.936508,1269.77143 407.645808,1269.77143 408.37851,1270.68571 C409.355311,1271.6 409.355311,1272.97143 408.37851,1273.88571 C405.692308,1276.62848 401.785104,1278 398.1221,1278 C394.459096,1278 390.551893,1276.62848 387.62149,1273.88571 C386.644689,1272.97143 386.644689,1271.6 387.62149,1270.68571 Z M389.555556,1254 C391.51921,1254 393.111111,1255.5919 393.111111,1257.55556 C393.111111,1259.51921 391.51921,1261.11111 389.555556,1261.11111 C387.591901,1261.11111 386,1259.51921 386,1257.55556 C386,1255.5919 387.591901,1254 389.555556,1254 Z M406.444444,1254 C408.408099,1254 410,1255.5919 410,1257.55556 C410,1259.51921 408.408099,1261.11111 406.444444,1261.11111 C404.48079,1261.11111 402.888889,1259.51921 402.888889,1257.55556 C402.888889,1255.5919 404.48079,1254 406.444444,1254 Z" id="Combined-Shape"></path>
        </g>
    </g>
</svg>