<?xml version="1.0" encoding="UTF-8"?>
<svg width="26px" height="28px" viewBox="0 0 26 28" version="1.1" xmlns="http://www.w3.org/2000/svg" xmlns:xlink="http://www.w3.org/1999/xlink">
    <!-- Generator: Sketch 59.1 (86144) - https://sketch.com -->
    <title>Icons/PickUp</title>
    <desc>Created with Sketch.</desc>
    <defs>
        <path d="M22.492255,7.27840909 C24.4293846,7.27840909 26,8.86363356 26,10.8192862 L26,10.8192862 L26,24.3798035 C26,26.3352301 24.4293846,27.9204545 22.492255,27.9204545 C20.5551254,27.9204545 18.9845101,26.3352301 18.9845101,24.3798035 L18.9845101,24.3798035 L18.9845101,13.6281213 L12.9483318,19.7213138 C12.3653122,20.3098402 11.4200324,20.3096142 10.8370128,19.7213138 C10.254441,19.1330133 10.2542171,18.1788049 10.8370128,17.5902785 L10.8370128,17.5902785 L19.8785182,8.4635983 C20.5208697,7.73788462 21.4522681,7.27840909 22.492255,7.27840909 Z M16.2495003,7.27840909 C16.7473145,7.27840909 17.164481,7.60832194 17.3118484,8.06215105 L17.3118484,8.06215105 L9.44454186,16.0248511 C8.06993666,17.4161238 8.07016131,19.6716272 9.44454186,21.0626725 C10.8189224,22.4537178 13.0471801,22.4539452 14.4217853,21.0626725 L14.4217853,21.0626725 L17.3727273,18.0759495 L17.3727273,23.8006535 C17.3727273,24.4284202 16.8699709,24.9375 16.2495003,24.9375 L16.2495003,24.9375 L1.12322699,24.9375 C0.502756403,24.9375 0,24.4284202 0,23.8006535 L0,23.8006535 L0,8.41525556 C0,7.78748894 0.502756403,7.27840909 1.12322699,7.27840909 L1.12322699,7.27840909 Z M22.4546568,0 C24.2169086,0 25.6454545,1.44228199 25.6454545,3.22170329 C25.6454545,5.00089983 24.2169086,6.44318182 22.4546568,6.44318182 C20.6921823,6.44318182 19.2636364,5.00089983 19.2636364,3.22170329 C19.2636364,1.44228199 20.6921823,0 22.4546568,0 Z" id="path-1"></path>
    </defs>
    <g id="TapGoods-2.0" stroke="none" stroke-width="1" fill="none" fill-rule="evenodd">
        <g id="600_AboutUs" transform="translate(-386.000000, -989.000000)">
            <g id="Icons/PickUp" transform="translate(386.000000, 989.000000)">
                <g id="Color/Cobalt">
                    <mask id="mask-2" fill="white">
                        <use xlink:href="#path-1"></use>
                    </mask>
                    <use id="Mask" fill="#8FA9BE" xlink:href="#path-1"></use>
                    <g id="Color/Blue" mask="url(#mask-2)" fill="#278ADA">
                        <rect id="Rectangle-11" x="0" y="0" width="26" height="28"></rect>
                    </g>
                </g>
            </g>
        </g>
    </g>
</svg>