<?xml version="1.0" encoding="UTF-8"?>
<svg width="40px" height="21px" viewBox="0 0 40 21" version="1.1" xmlns="http://www.w3.org/2000/svg" xmlns:xlink="http://www.w3.org/1999/xlink">
    <!-- Generator: Sketch 59.1 (86144) - https://sketch.com -->
    <title>Logo/TapGoods_Icon-Blue</title>
    <desc>Created with Sketch.</desc>
    <g id="Symbols" stroke="none" stroke-width="1" fill="none" fill-rule="evenodd">
        <g id="Global/Footer_V1" transform="translate(-580.000000, -154.000000)" fill="#278ADA">
            <g id="Logo/TapGoods_Icon-Blue" transform="translate(580.000000, 154.000000)">
                <path d="M30.0927281,0.00862271234 C24.3410687,0.00862271234 21.1625406,4.97858986 18.3580253,9.3642656 C15.7810184,13.3943571 13.5555448,16.8738268 9.90843467,16.8738268 C6.5880529,16.8738268 3.88740856,14.0131394 3.88740856,10.4958939 C3.88740856,6.97946973 6.5880529,4.11837166 9.90843467,4.11837166 C11.93198,4.11837166 13.5760864,5.47665415 14.5992927,6.6164946 L14.6136331,6.60171281 C14.9694298,6.06094557 15.3283271,5.50909198 15.6934257,4.93752933 C16.064338,4.35816518 16.4449397,3.7689465 16.8340681,3.18137025 C14.7469599,1.10452839 12.3699433,0 9.90843467,0 C4.44513347,0 0,4.70841154 0,10.4958939 C0,16.283787 4.44513347,20.9921985 9.90843467,20.9921985 C15.6174604,20.9921985 18.7831985,16.0415298 21.5756989,11.6735101 C24.166271,7.62412013 26.4029844,4.12576255 30.0927281,4.12576255 C33.4119471,4.12576255 36.112979,6.98686063 36.112979,10.5045167 C36.112979,14.0209409 33.4119471,16.8820389 30.0927281,16.8820389 C28.4993944,16.8820389 26.9983043,16.0788949 25.366988,14.35271 L25.3371445,14.383916 C24.9708832,14.9378226 24.6030716,15.5110277 24.2275084,16.0969615 C23.873262,16.6521 23.5077758,17.2138081 23.1360884,17.7763374 C25.3503222,19.9340685 27.6308318,21 30.0927281,21 C35.5552541,21 40,16.2915885 40,10.5045167 C40,4.71662365 35.5552541,0.00862271234 30.0927281,0.00862271234" id="Fill-1"></path>
            </g>
        </g>
    </g>
</svg>